<svg xmlns="http://www.w3.org/2000/svg" data-name="Layer 1" viewBox="0 0 128 128"><path d="M52.78 36.62A2 2 0 0 0 54.67 38H99.31s8.73-.83 12.95-2.64c7.15-3.08 9.6-6.45 8.49-8.11C109.67 10.82 89.86 0 68.5 0a61.56 61.56 0 0 0-29.2 7.32 2 2 0 0 0-.63 3A87.5 87.5 0 0 1 52.78 36.62zM14.55 38H41.91a2 2 0 0 0 1.86-2.75 79.68 79.68 0 0 0-12-20.67 2 2 0 0 0-1.53-.73 2.06 2.06 0 0 0-1.32.48A61.74 61.74 0 0 0 12.74 35.14 2 2 0 0 0 14.55 38zM29.94 18.73a75.6 75.6 0 0 1 9 15.27H17.81A58.29 58.29 0 0 1 29.94 18.73zM120.74 100.75c1.12-1.65-1.33-5-8.49-8.11C108 90.83 99.31 90 99.31 90H54.95A2 2 0 0 0 53 91.4a87.47 87.47 0 0 1-13.93 26.51 2 2 0 0 0 .65 3A61.57 61.57 0 0 0 68.5 128C89.86 128 109.67 117.18 120.74 100.75zM42.23 90H14.55a2 2 0 0 0-1.81 2.86 61.76 61.76 0 0 0 16.64 21.2 2 2 0 0 0 1.24.44 2 2 0 0 0 1.56-.75 79.64 79.64 0 0 0 11.91-21A2 2 0 0 0 42.23 90zM30.32 109.61A58.24 58.24 0 0 1 17.81 94H39.27A75.51 75.51 0 0 1 30.32 109.61zM11.19 82H45.71a2 2 0 0 0 2-1.58 79.63 79.63 0 0 0 1.63-16 79.63 79.63 0 0 0-1.81-16.85 2 2 0 0 0-2-1.56H11.19a2 2 0 0 0-1.93 1.44 61.72 61.72 0 0 0 0 33.11A2 2 0 0 0 11.19 82zM57.92 82h35.5a18.07 18.07 0 0 0 18.14-18h0A18.07 18.07 0 0 0 93.42 46H57.77a2 2 0 0 0-2 2.34 88.3 88.3 0 0 1 1.47 16.08A88.48 88.48 0 0 1 56 79.63 2 2 0 0 0 57.92 82zm35.5-32a14 14 0 1 1 0 28H60.27a93 93 0 0 0 1-13.58A92.71 92.71 0 0 0 60.14 50z"/></svg>