<!DOCTYPE svg PUBLIC "-//W3C//DTD SVG 1.1//EN" "http://www.w3.org/Graphics/SVG/1.1/DTD/svg11.dtd">

<!-- Uploaded to: SVG Repo, www.svgrepo.com, Transformed by: SVG Repo Mixer Tools -->
<svg  height="800px" width="800px" version="1.1" id="Layer_1" xmlns="http://www.w3.org/2000/svg" xmlns:xlink="http://www.w3.org/1999/xlink" viewBox="0 0 512 512" xml:space="preserve" stroke="#000000" stroke-width="13.312000000000001">

<g id="SVGRepo_bgCarrier" stroke-width="0"/>

<g id="SVGRepo_tracerCarrier" stroke-linecap="round" stroke-linejoin="round"/>

<g id="SVGRepo_iconCarrier"> <g> <g> <path d="M505.183,6.816C500.818,2.451,494.899,0,488.726,0L23.271,0.028C10.418,0.028,0,10.446,0,23.301v372.336 c0,12.853,10.42,23.273,23.273,23.273h224.97v69.818c0,7.481,3.595,14.505,9.666,18.879c6.068,4.374,13.869,5.564,20.967,3.199 l39.185-13.062l39.187,13.062c2.403,0.801,4.886,1.195,7.357,1.195c4.824,0,9.596-1.5,13.608-4.394 c6.07-4.374,9.666-11.399,9.666-18.879v-69.818h100.849c12.853,0,23.273-10.42,23.273-23.273V23.273 C512,17.099,509.549,11.18,505.183,6.816z M341.333,456.439l-15.914-5.305c-4.776-1.592-9.942-1.592-14.718,0l-15.914,5.305 v-55.785c7.475,1.775,15.262,2.742,23.273,2.742s15.798-0.967,23.273-2.742V456.439z M318.061,356.849 c-29.943,0-54.303-24.36-54.303-54.303s24.36-54.303,54.303-54.303s54.303,24.36,54.303,54.303S348.003,356.849,318.061,356.849z M465.455,372.364h-74.726c17.431-18.136,28.18-42.738,28.18-69.818c0-55.608-45.241-100.849-100.849-100.849 s-100.848,45.241-100.848,100.849c0,27.08,10.749,51.682,28.18,69.818H46.545V46.572l418.909-0.025V372.364z"/> </g> </g> <g> <g> <path d="M395.633,93.091l-279.273,0.028c-12.853,0.002-23.271,10.422-23.27,23.274c0.002,12.853,10.422,23.273,23.276,23.271 l279.273-0.028c12.853-0.002,23.271-10.422,23.27-23.276C418.908,103.508,408.488,93.089,395.633,93.091z"/> </g> </g> <g> <g> <path d="M162.909,201.697c-0.003,0-0.009,0-0.014,0l-46.545,0.028c-12.853,0.008-23.267,10.434-23.259,23.287 c0.008,12.848,10.425,23.259,23.273,23.259c0.003,0,0.009,0,0.014,0l46.545-0.028c12.853-0.008,23.266-10.434,23.259-23.287 C186.174,212.108,175.757,201.697,162.909,201.697z"/> </g> </g> </g>

</svg>