<?xml version="1.0" encoding="utf-8"?><svg version="1.1" id="Layer_1" xmlns="http://www.w3.org/2000/svg"
	xmlns:xlink="http://www.w3.org/1999/xlink" x="0px" y="0px" viewBox="0 0 102.88 106.79"
	style="enable-background:new 0 0 102.88 106.79" xml:space="preserve">
	<g>
		<path class="st1"
			d="M101.42,40.78c0-0.59-0.02-1.17-0.04-1.75V5.88l-9.16,9.17C84.72,5.86,73.31,0,60.53,0 c-13.3,0-25.12,6.35-32.59,16.18l15.02,15.18c1.47-2.72,3.56-5.06,6.08-6.83c2.62-2.05,6.34-3.72,11.48-3.72 c0.62,0,1.1,0.07,1.45,0.21c6.37,0.5,11.89,4.02,15.14,9.12L66.48,40.77C79.95,40.72,95.17,40.69,101.42,40.78L101.42,40.78 L101.42,40.78z M101.42,40.78L101.42,40.78L101.42,40.78L101.42,40.78z" />
		<path class="st3"
			d="M60.29,0c-0.59,0-1.17,0.02-1.75,0.04H25.38l9.17,9.16C25.37,16.71,19.5,28.12,19.5,40.9 c0,13.3,6.35,25.12,16.18,32.59l15.18-15.02c-2.72-1.47-5.06-3.56-6.83-6.08c-2.05-2.62-3.72-6.34-3.72-11.48 c0-0.62,0.07-1.1,0.21-1.45c0.5-6.37,4.02-11.89,9.12-15.14l10.63,10.63C60.23,21.47,60.19,6.26,60.29,0L60.29,0L60.29,0z M60.29,0 L60.29,0L60.29,0L60.29,0z" />
		<path class="st0"
			d="M19.51,40.9c0,0.59,0.02,1.17,0.04,1.75V75.8l9.16-9.16c7.5,9.18,18.91,15.04,31.69,15.04 c13.3,0,25.12-6.35,32.59-16.18L77.97,50.32c-1.47,2.72-3.56,5.06-6.08,6.83c-2.62,2.05-6.34,3.72-11.48,3.72 c-0.62,0-1.1-0.07-1.45-0.21c-6.37-0.5-11.89-4.02-15.14-9.12l10.63-10.63C40.98,40.96,25.76,40.99,19.51,40.9L19.51,40.9 L19.51,40.9z M19.51,40.9L19.51,40.9L19.51,40.9L19.51,40.9z" />

	</g>
</svg>