<svg xmlns="http://www.w3.org/2000/svg" viewBox="0 0 91.5 92.59"><defs><style>.cls-1{fill:#fff;}.cls-2{fill:#2c3a47;}.cls-3{fill:#85acd3;}</style></defs><title>oauth-2-spec</title><g id="Lager_2" data-name="Lager 2"><g id="Lager_1-2" data-name="Lager 1"><g id="Clipped"><path id="Shape" class="cls-1" d="M42.39.13c20.25-1.41,33.66,8.6,41.34,20.8,3.84,6.11,7.62,15.4,7.63,24.94a47.22,47.22,0,0,1-7.63,25.95A45.93,45.93,0,0,1,66.29,87.87c-12.05,6.13-28.91,6.3-40,.39C14,81.68,4.59,72.28,1.07,56a49.53,49.53,0,0,1,.39-22.2q.87-2.62,2-5.16A45.14,45.14,0,0,1,18.7,8.85,51.76,51.76,0,0,1,27.51,3.7,49.65,49.65,0,0,1,42.39.13"/></g><path id="Shape-2" class="cls-2" d="M45.75,76A29.94,29.94,0,1,1,75.46,45.83v.23A29.81,29.81,0,0,1,45.75,76M75,16.24A37.49,37.49,0,0,0,61.62,7.35c-5.48-2-11.69-3.78-19-3.16C31,5.19,22.77,10.46,16.55,16.63a41.2,41.2,0,0,0-9.8,15.8,43,43,0,0,0,.58,29,40.71,40.71,0,0,0,15.1,19.15,40.73,40.73,0,0,0,55.65-8.29A22.67,22.67,0,0,0,82.2,65.4c.91-1.92,1.36-3.24,1.77-3.94a36,36,0,0,0,2.94-12.64A41.57,41.57,0,0,0,75,16.24"/><path id="Shape-3" class="cls-3" d="M35.59,3.56a47.17,47.17,0,0,0-17.84,9.3C10.82,18.34,6.41,26,3.82,35.21c-2.88,10.26-1,22.67,2.94,30.47,4.12,8.1,9.66,14.38,17.46,18.81a44,44,0,0,0,29.42,4.94A42,42,0,0,0,77.18,76.77a44.73,44.73,0,0,0,10.4-41.16,48.85,48.85,0,0,0-5.1-13.06,44.87,44.87,0,0,0-5.1-6.33A41.46,41.46,0,0,0,43.64,2.37a42.58,42.58,0,0,0-8,1.19M42.46.2C62.73-1.22,76.17,8.79,83.86,21c3.85,6.11,7.63,15.4,7.64,24.93a47.13,47.13,0,0,1-7.64,25.92,45.88,45.88,0,0,1-17.47,16c-12.07,6.13-28.95,6.3-40,.4C14.06,81.67,4.6,72.28,1.07,56a49.5,49.5,0,0,1,.39-22.16q.87-2.62,2-5.15A45.11,45.11,0,0,1,18.72,8.9a53.66,53.66,0,0,1,8.83-5.14A49.23,49.23,0,0,1,42.46.2"/><path id="Shape-4" class="cls-1" d="M26.87,16.12h0a1.69,1.69,0,0,0-2.33-.5l-.08.05a1.72,1.72,0,0,0-.32,2.4l0,0h0a1.68,1.68,0,1,0,2.71-2h0Zm-4.21,3.11h0a3.52,3.52,0,0,1,.84-4.89h0a3.4,3.4,0,0,1,4.77.56.44.44,0,0,1,.08.11h0a3.52,3.52,0,0,1-.83,4.9h0a3.37,3.37,0,0,1-4.75-.53Zm13.45-6.71-1.26-1.58-.14,2ZM33.38,9.14,35,8.59l4.68,5.51-1.86.6-.82-1-2.4.78-.09,1.28-1.81.59Zm9.34,1.65V7.06h1.85v3.69c0,1,.48,1.42,1.21,1.42S47,11.74,47,10.82V7.07h1.84v3.67a2.76,2.76,0,0,1-2.41,3.08,2.58,2.58,0,0,1-.68,0,2.73,2.73,0,0,1-3-2.39A3.42,3.42,0,0,1,42.72,10.79Zm12.8-.65-1.88-.58L54.1,8l5.51,1.69-.47,1.54-1.88-.58-1.45,4.82L54.07,15Zm9,1.73,1.52,1L64.68,15l1.94,1.31L68,14.19l1.52,1-3.64,5.53-1.51-1,1.38-2.1-1.94-1.3-1.38,2.1-1.52-1Zm.07,63.71h0a1.68,1.68,0,0,0,2.35.4l.07-.06a1.7,1.7,0,0,0,.25-2.39l0,0h0a1.66,1.66,0,0,0-2.32-.42l-.09.06a1.7,1.7,0,0,0-.26,2.39l0,0Zm4.09-3.27h0a3.49,3.49,0,0,1-.61,4.9.18.18,0,0,1-.07.05,3.39,3.39,0,0,1-4.78-.36,1.13,1.13,0,0,0-.1-.13h0a3.51,3.51,0,0,1,.65-4.92l0,0a3.39,3.39,0,0,1,4.77.33A1.58,1.58,0,0,1,68.68,72.31ZM55.52,79.57l1.33,1.52.06-2-1.39.51Zm2.89,3.26-1.64.62-4.91-5.29,1.83-.7.85,1,2.37-.89V76.29l1.8-.67ZM49,81.56l.15,3.73-1.83.09-.17-3.69c0-1-.54-1.39-1.27-1.36s-1.19.49-1.15,1.42l.16,3.73-1.84.08-.17-3.67a2.77,2.77,0,0,1,2.27-3.18,2.51,2.51,0,0,1,.67,0A2.73,2.73,0,0,1,49,80.89,2.53,2.53,0,0,1,49,81.56ZM36.19,82.79l1.9.51-.42,1.57-5.56-1.52.42-1.56,1.9.51,1.29-4.84,1.76.47Zm-9-1.36-1.56-.94,1.26-2.13-2-1.22-1.27,2.13-1.56-.94,3.37-5.7,1.56.94-1.28,2.17,2,1.21L29,74.79l1.56.95Z"/><path id="Shape-5" class="cls-3" d="M34.07,52.41l11.26-9.17c1.24-1,3.58-3.36,3.58-5.3a3.32,3.32,0,0,0-3.14-3.5h-.44c-2.78,0-4.72,2.38-5.54,4.84L34,36.3c1.45-3.69,5.39-7.24,11.89-7.24,8.66,0,11.11,5,11.11,8.43s-2.19,6.09-5.09,8l-7.65,5.25v.08H57v6.71H34.07Z"/></g></g></svg>